<?xml version="1.0" encoding="UTF-8"?>
<!DOCTYPE svg PUBLIC "-//W3C//DTD SVG 1.1//EN" "http://www.w3.org/Graphics/SVG/1.1/DTD/svg11.dtd">
<svg version="1.1" xmlns="http://www.w3.org/2000/svg" xmlns:xlink="http://www.w3.org/1999/xlink" x="0" y="0" width="470" height="312" viewBox="0, 0, 470, 312">
  <g id="Layer_1">
    <g>
      <path d="M236.5,107.5 C174.092,107.5 123.5,86.905 123.5,61.5 C123.5,36.095 174.092,15.5 236.5,15.5 C298.908,15.5 349.5,36.095 349.5,61.5 C349.5,86.905 298.908,107.5 236.5,107.5 z" fill="#0085CF"/>
      <path d="M236.5,107.5 C174.092,107.5 123.5,86.905 123.5,61.5 C123.5,36.095 174.092,15.5 236.5,15.5 C298.908,15.5 349.5,36.095 349.5,61.5 C349.5,86.905 298.908,107.5 236.5,107.5 z" fill-opacity="0" stroke="#000000" stroke-width="1"/>
    </g>
    <g>
      <path d="M69,285.5 C38.9,285.5 14.5,264.905 14.5,239.5 C14.5,214.095 38.9,193.5 69,193.5 C99.1,193.5 123.5,214.095 123.5,239.5 C123.5,264.905 99.1,285.5 69,285.5 z" fill="#60FDFF"/>
      <path d="M69,285.5 C38.9,285.5 14.5,264.905 14.5,239.5 C14.5,214.095 38.9,193.5 69,193.5 C99.1,193.5 123.5,214.095 123.5,239.5 C123.5,264.905 99.1,285.5 69,285.5 z" fill-opacity="0" stroke="#000000" stroke-width="1"/>
    </g>
    <text transform="matrix(1, 0, 0, 1, 236, 61)">
      <tspan x="-34.879" y="-8" font-family="LucidaGrande-Bold" font-size="18" fill="#000000">Remote</tspan>
      <tspan x="-49.944" y="13" font-family="LucidaGrande-Bold" font-size="18" fill="#000000">Repository</tspan>
    </text>
    <text transform="matrix(1, 0, 0, 1, 68.5, 239)">
      <tspan x="-19.582" y="-7.5" font-family="LucidaGrande-Bold" font-size="14" fill="#000000">Tim's</tspan>
      <tspan x="-38.845" y="9.5" font-family="LucidaGrande-Bold" font-size="14" fill="#000000">Repository</tspan>
    </text>
    <g>
      <path d="M236.5,285.5 C206.4,285.5 182,264.905 182,239.5 C182,214.095 206.4,193.5 236.5,193.5 C266.6,193.5 291,214.095 291,239.5 C291,264.905 266.6,285.5 236.5,285.5 z" fill="#FF75EC"/>
      <path d="M236.5,285.5 C206.4,285.5 182,264.905 182,239.5 C182,214.095 206.4,193.5 236.5,193.5 C266.6,193.5 291,214.095 291,239.5 C291,264.905 266.6,285.5 236.5,285.5 z" fill-opacity="0" stroke="#000000" stroke-width="1"/>
    </g>
    <text transform="matrix(1, 0, 0, 1, 236, 239)">
      <tspan x="-36.066" y="-7.5" font-family="LucidaGrande-Bold" font-size="14" fill="#000000">Rochelle's</tspan>
      <tspan x="-38.845" y="9.5" font-family="LucidaGrande-Bold" font-size="14" fill="#000000">Repository</tspan>
    </text>
    <g>
      <path d="M404,285.5 C373.9,285.5 349.5,264.905 349.5,239.5 C349.5,214.095 373.9,193.5 404,193.5 C434.1,193.5 458.5,214.095 458.5,239.5 C458.5,264.905 434.1,285.5 404,285.5 z" fill="#FF75EC"/>
      <path d="M404,285.5 C373.9,285.5 349.5,264.905 349.5,239.5 C349.5,214.095 373.9,193.5 404,193.5 C434.1,193.5 458.5,214.095 458.5,239.5 C458.5,264.905 434.1,285.5 404,285.5 z" fill-opacity="0" stroke="#000000" stroke-width="1"/>
    </g>
    <text transform="matrix(1, 0, 0, 1, 403.5, 239)">
      <tspan x="-29.979" y="-7.5" font-family="LucidaGrande-Bold" font-size="14" fill="#000000">Hiroko's</tspan>
      <tspan x="-38.845" y="9.5" font-family="LucidaGrande-Bold" font-size="14" fill="#000000">Repository</tspan>
    </text>
    <g>
      <path d="M236.5,137.1 L236.5,166.9" fill-opacity="0" stroke="#000000" stroke-width="3"/>
      <path d="M240.7,137.1 L236.5,125.9 L232.3,137.1 z" fill="#000000" fill-opacity="1" stroke="#000000" stroke-width="3" stroke-opacity="1"/>
      <path d="M232.3,166.9 L236.5,178.1 L240.7,166.9 z" fill="#000000" fill-opacity="1" stroke="#000000" stroke-width="3" stroke-opacity="1"/>
    </g>
    <g>
      <path d="M307.117,133.591 L340.383,170.409" fill-opacity="0" stroke="#000000" stroke-width="3"/>
      <path d="M310.234,130.775 L299.609,125.281 L304.001,136.407 z" fill="#000000" fill-opacity="1" stroke="#000000" stroke-width="3" stroke-opacity="1"/>
      <path d="M337.266,173.225 L347.891,178.719 L343.499,167.593 z" fill="#000000" fill-opacity="1" stroke="#000000" stroke-width="3" stroke-opacity="1"/>
    </g>
    <g>
      <path d="M150.383,133.591 L117.117,170.409" fill-opacity="0" stroke="#000000" stroke-width="3"/>
      <path d="M153.499,136.407 L157.891,125.281 L147.266,130.775 z" fill="#000000" fill-opacity="1" stroke="#000000" stroke-width="3" stroke-opacity="1"/>
      <path d="M114.001,167.593 L109.609,178.719 L120.234,173.225 z" fill="#000000" fill-opacity="1" stroke="#000000" stroke-width="3" stroke-opacity="1"/>
    </g>
    <text transform="matrix(1, 0, 0, 1, 235, 298.5)">
      <tspan x="-64.418" y="5" font-family="LucidaGrande-Bold" font-size="14" fill="#000000">Local repositories</tspan>
    </text>
  </g>
</svg>
